{
	"accessors": {
		"LOD3spShape_53_Normals": {
			"bufferView": "LOD3spShape_53_Normals_Buffer",
			"byteOffset": 0,
			"byteStride": 12,
			"componentType": 5126,
			"count": 2399,
			"max": [
				0.999599,
				0.999581,
				0.998436
			],
			"min": [
				-0.999084,
				-1,
				-0.999832
			],
			"name": "LOD3spShape_53_Normals",
			"type": "VEC3"
		},
		"LOD3spShape_53_Polygons": {
			"bufferView": "LOD3spShape_53_Polygons_Buffer",
			"byteOffset": 0,
			"byteStride": 2,
			"componentType": 5123,
			"count": 12636,
			"name": "LOD3spShape_53_Polygons",
			"type": "SCALAR"
		},
		"LOD3spShape_53_Positions": {
			"bufferView": "LOD3spShape_53_Positions_Buffer",
			"byteOffset": 0,
			"byteStride": 12,
			"componentType": 5126,
			"count": 2399,
			"max": [
				96.1799,
				163.97,
				53.9252
			],
			"min": [
				-69.2985,
				9.92937,
				-61.3282
			],
			"name": "LOD3spShape_53_Positions",
			"type": "VEC3"
		},
		"LOD3spShape_53_TEXCOORD_0": {
			"bufferView": "LOD3spShape_53_TEXCOORD_0_Buffer",
			"byteOffset": 0,
			"byteStride": 8,
			"componentType": 5126,
			"count": 2399,
			"max": [
				0.983346,
				0.980037
			],
			"min": [
				0.026409,
				0.019963
			],
			"name": "LOD3spShape_53_TEXCOORD_0",
			"type": "VEC2"
		}
	},
	"animations": {
	},
	"asset": {
		"copyright": "gcorson",
		"generator": "FBX GLTF Exporter v1.0",
		"premultipliedAlpha": 0,
		"profile": {
			"api": "WebGL",
			"version": "1.0.3"
		},
		"version": "1.0"
	},
	"bufferViews": {
		"LOD3spShape_53_Normals_Buffer": {
			"buffer": "test",
			"byteLength": 28788,
			"byteOffset": 28788,
			"name": "LOD3spShape_53_Normals_Buffer",
			"target": 34962
		},
		"LOD3spShape_53_Polygons_Buffer": {
			"buffer": "test",
			"byteLength": 25272,
			"byteOffset": 76768,
			"name": "LOD3spShape_53_Polygons_Buffer",
			"target": 34963
		},
		"LOD3spShape_53_Positions_Buffer": {
			"buffer": "test",
			"byteLength": 28788,
			"byteOffset": 0,
			"name": "LOD3spShape_53_Positions_Buffer",
			"target": 34962
		},
		"LOD3spShape_53_TEXCOORD_0_Buffer": {
			"buffer": "test",
			"byteLength": 19192,
			"byteOffset": 57576,
			"name": "LOD3spShape_53_TEXCOORD_0_Buffer",
			"target": 34962
		}
	},
	"buffers": {
		"test": {
			"byteLength": 102040,
			"name": "test",
			"type": "arraybuffer",
			"uri": "test.bin"
		}
	},
	"cameras": {
		"cameraShape1_43": {
			"name": "cameraShape1_43",
			"perspective": {
				"aspectRatio": 1.5,
				"yfov": 0.660593,
				"zfar": 100,
				"znear": 0.01
			},
			"type": "perspective"
		}
	},
	"images": {
		"file2": {
			"name": "file2",
			"uri": "duckCM.png"
		}
	},
	"lights": {
		"directionalLightShape1_44": {
			"directional": {
				"color": [
					1,
					1,
					1
				]
			},
			"name": "directionalLightShape1_44",
			"type": "directional"
		}
	},
	"materials": {
		"blinn3": {
			"name": "blinn3",
			"technique": "blinn3_technique_0",
			"values": {
				"ambient": [
					0,
					0,
					0,
					1
				],
				"diffuse": "texture_file2",
				"emission": [
					0,
					0,
					0,
					1
				],
				"reflective": [
					0,
					0,
					0,
					1
				],
				"reflectivity": 0.5,
				"shininess": 0.3,
				"specular": [
					0,
					0,
					0,
					1
				],
				"transparency": 1,
				"transparent": [
					0,
					0,
					0,
					1
				]
			}
		}
	},
	"meshes": {
		"LOD3spShape_53": {
			"name": "LOD3spShape_53",
			"primitives": [
				{
					"attributes": {
						"NORMAL": "LOD3spShape_53_Normals",
						"POSITION": "LOD3spShape_53_Positions",
						"TEXCOORD_0": "LOD3spShape_53_TEXCOORD_0"
					},
					"indices": "LOD3spShape_53_Polygons",
					"material": "blinn3",
					"mode": 4
				}
			]
		}
	},
	"nodes": {
		"LOD3sp_45": {
			"children": [
			],
			"matrix": [
				0.01,
				0,
				0,
				0,
				0,
				0.01,
				0,
				0,
				0,
				0,
				0.01,
				0,
				0,
				0,
				0,
				1
			],
			"meshes": [
				"LOD3spShape_53"
			],
			"name": "LOD3sp_45"
		},
		"RootNode_10": {
			"children": [
				"LOD3sp_45",
				"camera1_46",
				"directionalLight1_47"
			],
			"matrix": [
				1,
				0,
				0,
				0,
				0,
				1,
				0,
				0,
				0,
				0,
				1,
				0,
				0,
				0,
				0,
				1
			],
			"name": "RootNode_10"
		},
		"camera1_46": {
			"camera": "cameraShape1_43",
			"children": [
			],
			"matrix": [
				-0.00728969,
				-7.79844e-019,
				-0.00684547,
				0,
				-0.00425205,
				0.00783693,
				0.00452797,
				0,
				0.00536475,
				0.00621148,
				-0.00571288,
				0,
				4.00113,
				4.63264,
				-4.31078,
				1
			],
			"name": "camera1_46"
		},
		"directionalLight1_47": {
			"children": [
			],
			"light": "directionalLightShape1_44",
			"matrix": [
				-0.00954692,
				0.00218143,
				-0.00202428,
				0,
				0.000146722,
				0.00713885,
				0.00700109,
				0,
				0.00297235,
				0.00665418,
				-0.00684741,
				0,
				1.48654,
				1.83672,
				-2.92179,
				1
			],
			"name": "directionalLight1_47"
		}
	},
	"programs": {
		"program_0": {
			"attributes": [
				"a_normal",
				"a_position",
				"a_texcoord0"
			],
			"fragmentShader": "program_0FS",
			"name": "program_0",
			"vertexShader": "program_0VS"
		}
	},
	"samplers": {
		"sampler_file2": {
			"magFilter": 9729,
			"minFilter": 9987,
			"name": "sampler_file2",
			"wrapS": 10497,
			"wrapT": 10497
		}
	},
	"scene": "test",
	"scenes": {
		"test": {
			"nodes": [
				"RootNode_10"
			]
		}
	},
	"shaders": {
		"program_0FS": {
			"type": 35632,
			"uri": "program_0FS.glsl"
		},
		"program_0VS": {
			"type": 35633,
			"uri": "program_0VS.glsl"
		}
	},
	"skins": {
	},
	"techniques": {
		"blinn3_technique_0": {
			"attributes": {
				"a_normal": "normal",
				"a_position": "position",
				"a_texcoord0": "texcoord0"
			},
			"extras": {
				"doubleSided": 0,
				"lightingModel": "Phong",
				"texcoordBindings": {
					"diffuse": "TEXCOORD_0"
				}
			},
			"parameters": {
				"ambient": {
					"type": 35666
				},
				"diffuse": {
					"type": 35678
				},
				"emission": {
					"type": 35666
				},
				"light0Color": {
					"type": 35665,
					"value": [
						1,
						1,
						1
					]
				},
				"light0Transform": {
					"node": "directionalLight1_47",
					"semantic": "MODELVIEW",
					"type": 35676
				},
				"modelViewMatrix": {
					"semantic": "MODELVIEW",
					"type": 35676
				},
				"normal": {
					"semantic": "NORMAL",
					"type": 35665
				},
				"normalMatrix": {
					"semantic": "MODELVIEWINVERSETRANSPOSE",
					"type": 35675
				},
				"position": {
					"semantic": "POSITION",
					"type": 35665
				},
				"projectionMatrix": {
					"semantic": "PROJECTION",
					"type": 35676
				},
				"reflective": {
					"type": 35666
				},
				"reflectivity": {
					"type": 5126
				},
				"shininess": {
					"type": 5126
				},
				"specular": {
					"type": 35666
				},
				"texcoord0": {
					"semantic": "TEXCOORD_0",
					"type": 35664
				},
				"transparency": {
					"type": 5126
				},
				"transparent": {
					"type": 35666
				}
			},
			"program": "program_0",
			"states": {
				"enable": [
					2884,
					2929
				]
			},
			"uniforms": {
				"u_ambient": "ambient",
				"u_diffuse": "diffuse",
				"u_emission": "emission",
				"u_light0Color": "light0Color",
				"u_light0Transform": "light0Transform",
				"u_modelViewMatrix": "modelViewMatrix",
				"u_normalMatrix": "normalMatrix",
				"u_projectionMatrix": "projectionMatrix",
				"u_reflective": "reflective",
				"u_reflectivity": "reflectivity",
				"u_shininess": "shininess",
				"u_specular": "specular",
				"u_transparency": "transparency",
				"u_transparent": "transparent"
			}
		}
	},
	"textures": {
		"texture_file2": {
			"format": 6408,
			"internalFormat": 6408,
			"name": "texture_file2",
			"sampler": "sampler_file2",
			"source": "file2",
			"target": 3553,
			"type": 5121
		}
	}
}