{"accessors":{"Mesh_35_Normals":{"bufferView":"Mesh_35_Normals_Buffer","byteOffset":0,"byteStride":12,"componentType":5126,"count":3072,"max":[0.99959832429885864,0.99989205598831177,1],"min":[-0.99780374765396118,-0.99984991550445557,-1],"name":"Mesh_35_Normals","type":"VEC3"},"Mesh_35_Polygons":{"bufferView":"Mesh_35_Polygons_Buffer","byteOffset":0,"byteStride":2,"componentType":5123,"count":3072,"name":"Mesh_35_Polygons","type":"SCALAR"},"Mesh_35_Positions":{"bufferView":"Mesh_35_Positions_Buffer","byteOffset":0,"byteStride":12,"componentType":5126,"count":3072,"max":[23.234088897705078,13.55498218536377,21.349098205566406],"min":[-20.332473754882813,-13.55498218536377,0],"name":"Mesh_35_Positions","type":"VEC3"},"Mesh_35_TEXCOORD_0":{"bufferView":"Mesh_35_TEXCOORD_0_Buffer","byteOffset":0,"byteStride":8,"componentType":5126,"count":3072,"max":[2,1],"min":[0,-1],"name":"Mesh_35_TEXCOORD_0","type":"VEC2"}},"animations":{},"asset":{"copyright":"","generator":"FBX GLTF Exporter v1.0","premultipliedAlpha":false,"profile":{"API":"WebGL","version":"1.0.3"},"version":"1.0"},"bufferViews":{"Mesh_35_Normals_Buffer":{"buffer":"teapot","byteLength":36864,"byteOffset":36864,"name":"Mesh_35_Normals_Buffer","target":34962},"Mesh_35_Polygons_Buffer":{"buffer":"teapot","byteLength":6144,"byteOffset":98304,"name":"Mesh_35_Polygons_Buffer","target":34963},"Mesh_35_Positions_Buffer":{"buffer":"teapot","byteLength":36864,"byteOffset":0,"name":"Mesh_35_Positions_Buffer","target":34962},"Mesh_35_TEXCOORD_0_Buffer":{"buffer":"teapot","byteLength":24576,"byteOffset":73728,"name":"Mesh_35_TEXCOORD_0_Buffer","target":34962}},"buffers":{"teapot":{"byteLength":104448,"name":"teapot","type":"arraybuffer","uri":"teapot.bin"}},"cameras":{},"images":{},"lights":{},"materials":{},"meshes":{"Mesh_35":{"name":"Mesh_35","primitives":[]}},"nodes":{"Teapot001":{"children":[],"matrix":[0.025399999999999999,0,0,0,0,0.025399999999999999,0,0,0,0,0.025399999999999999,0,-0.097620010375976563,0,0.21647787170410154,1],"meshes":["Mesh_35"],"name":"Teapot001"}},"programs":{},"samplers":{},"scene":"teapot","scenes":{"teapot":{"nodes":["Teapot001"]}},"shaders":{},"skins":{},"techniques":{},"textures":{}}