{
	"accessors": {
		"Mesh_42_Normals": {
			"bufferView": "Mesh_42_Normals_Buffer",
			"byteOffset": 0,
			"byteStride": 12,
			"componentType": 5126,
			"count": 684,
			"max": [
				0.999598,
				0.999892,
				1
			],
			"min": [
				-0.997804,
				-0.99985,
				-1
			],
			"name": "Mesh_42_Normals",
			"type": "VEC3"
		},
		"Mesh_42_Polygons": {
			"bufferView": "Mesh_42_Polygons_Buffer",
			"byteOffset": 0,
			"byteStride": 2,
			"componentType": 5123,
			"count": 3072,
			"name": "Mesh_42_Polygons",
			"type": "SCALAR"
		},
		"Mesh_42_Positions": {
			"bufferView": "Mesh_42_Positions_Buffer",
			"byteOffset": 0,
			"byteStride": 12,
			"componentType": 5126,
			"count": 684,
			"max": [
				23.2341,
				13.555,
				21.3491
			],
			"min": [
				-20.3325,
				-13.555,
				0
			],
			"name": "Mesh_42_Positions",
			"type": "VEC3"
		},
		"Mesh_42_TEXCOORD_0": {
			"bufferView": "Mesh_42_TEXCOORD_0_Buffer",
			"byteOffset": 0,
			"byteStride": 8,
			"componentType": 5126,
			"count": 684,
			"max": [
				2,
				1
			],
			"min": [
				0,
				-1
			],
			"name": "Mesh_42_TEXCOORD_0",
			"type": "VEC2"
		}
	},
	"animations": {
	},
	"asset": {
		"copyright": "",
		"generator": "FBX GLTF Exporter v1.0",
		"premultipliedAlpha": 0,
		"profile": {
			"api": "WebGL",
			"version": "1.0.3"
		},
		"version": "1.0"
	},
	"bufferViews": {
		"Mesh_42_Normals_Buffer": {
			"buffer": "test",
			"byteLength": 8208,
			"byteOffset": 8208,
			"name": "Mesh_42_Normals_Buffer",
			"target": 34962
		},
		"Mesh_42_Polygons_Buffer": {
			"buffer": "test",
			"byteLength": 6144,
			"byteOffset": 21888,
			"name": "Mesh_42_Polygons_Buffer",
			"target": 34963
		},
		"Mesh_42_Positions_Buffer": {
			"buffer": "test",
			"byteLength": 8208,
			"byteOffset": 0,
			"name": "Mesh_42_Positions_Buffer",
			"target": 34962
		},
		"Mesh_42_TEXCOORD_0_Buffer": {
			"buffer": "test",
			"byteLength": 5472,
			"byteOffset": 16416,
			"name": "Mesh_42_TEXCOORD_0_Buffer",
			"target": 34962
		}
	},
	"buffers": {
		"test": {
			"byteLength": 28032,
			"name": "test",
			"type": "arraybuffer",
			"uri": "test.bin"
		}
	},
	"cameras": {
	},
	"images": {
	},
	"lights": {
	},
	"materials": {
		"defaultMaterial": {
			"name": "defaultMaterial",
			"technique": "defaultMaterial_technique_0",
			"values": {
				"diffuse": [
					0.6,
					0.894118,
					0.721569,
					1
				]
			}
		}
	},
	"meshes": {
		"Mesh_42": {
			"name": "Mesh_42",
			"primitives": [
				{
					"attributes": {
						"NORMAL": "Mesh_42_Normals",
						"POSITION": "Mesh_42_Positions",
						"TEXCOORD_0": "Mesh_42_TEXCOORD_0"
					},
					"indices": "Mesh_42_Polygons",
					"material": "defaultMaterial",
					"mode": 4
				}
			]
		}
	},
	"nodes": {
		"RootNode_10": {
			"children": [
				"Teapot001_39"
			],
			"matrix": [
				1,
				0,
				0,
				0,
				0,
				1,
				0,
				0,
				0,
				0,
				1,
				0,
				0,
				0,
				0,
				1
			],
			"name": "RootNode_10"
		},
		"Teapot001_39": {
			"children": [
			],
			"matrix": [
				0.0254,
				0,
				0,
				0,
				0,
				0.0254,
				0,
				0,
				0,
				0,
				0.0254,
				0,
				-0.09762,
				0,
				0.216478,
				1
			],
			"meshes": [
				"Mesh_42"
			],
			"name": "Teapot001_39"
		}
	},
	"programs": {
		"program_0": {
			"attributes": [
				"a_normal",
				"a_position"
			],
			"fragmentShader": "program_0FS",
			"name": "program_0",
			"vertexShader": "program_0VS"
		}
	},
	"samplers": {
	},
	"scene": "test",
	"scenes": {
		"test": {
			"nodes": [
				"RootNode_10"
			]
		}
	},
	"shaders": {
		"program_0FS": {
			"type": 35632,
			"uri": "program_0FS.glsl"
		},
		"program_0VS": {
			"type": 35633,
			"uri": "program_0VS.glsl"
		}
	},
	"skins": {
	},
	"techniques": {
		"defaultMaterial_technique_0": {
			"attributes": {
				"a_normal": "normal",
				"a_position": "position"
			},
			"extras": {
				"doubleSided": 0,
				"lightingModel": "Unknown",
				"texcoordBindings": {
					"diffuse": "TEXCOORD_0"
				}
			},
			"parameters": {
				"diffuse": {
					"type": 35666
				},
				"modelViewMatrix": {
					"semantic": "MODELVIEW",
					"type": 35676
				},
				"normal": {
					"semantic": "NORMAL",
					"type": 35665
				},
				"normalMatrix": {
					"semantic": "MODELVIEWINVERSETRANSPOSE",
					"type": 35675
				},
				"position": {
					"semantic": "POSITION",
					"type": 35665
				},
				"projectionMatrix": {
					"semantic": "PROJECTION",
					"type": 35676
				}
			},
			"program": "program_0",
			"states": {
				"enable": [
					2884,
					2929
				]
			},
			"uniforms": {
				"u_diffuse": "diffuse",
				"u_modelViewMatrix": "modelViewMatrix",
				"u_normalMatrix": "normalMatrix",
				"u_projectionMatrix": "projectionMatrix"
			}
		}
	},
	"textures": {
	}
}