{
	"accessors": {
		"Mesh_39_Normals": {
			"bufferView": "Mesh_39_Normals_Buffer",
			"byteOffset": 0,
			"byteStride": 12,
			"componentType": 5126,
			"count": 684,
			"max": [0.99959832429885864,
			0.99989205598831177,
			1],
			"min": [-0.99780374765396118,
			-0.99984991550445557,
			-1],
			"name": "Mesh_39_Normals",
			"type": "VEC3"
		},
		"Mesh_39_Polygons": {
			"bufferView": "Mesh_39_Polygons_Buffer",
			"byteOffset": 0,
			"byteStride": 2,
			"componentType": 5123,
			"count": 3072,
			"name": "Mesh_39_Polygons",
			"type": "SCALAR"
		},
		"Mesh_39_Positions": {
			"bufferView": "Mesh_39_Positions_Buffer",
			"byteOffset": 0,
			"byteStride": 12,
			"componentType": 5126,
			"count": 684,
			"max": [23.234088897705078,
			13.55498218536377,
			21.349098205566406],
			"min": [-20.332473754882813,
			-13.55498218536377,
			0],
			"name": "Mesh_39_Positions",
			"type": "VEC3"
		},
		"Mesh_39_TEXCOORD_0": {
			"bufferView": "Mesh_39_TEXCOORD_0_Buffer",
			"byteOffset": 0,
			"byteStride": 8,
			"componentType": 5126,
			"count": 684,
			"max": [2,
			1],
			"min": [0,
			-1],
			"name": "Mesh_39_TEXCOORD_0",
			"type": "VEC2"
		}
	},
	"animations": {
		
	},
	"asset": {
		"copyright": "",
		"generator": "FBX GLTF Exporter v1.0",
		"premultipliedAlpha": false,
		"profile": {
			"api": "WebGL",
			"version": "1.0.3"
		},
		"version": "1.0"
	},
	"bufferViews": {
		"Mesh_39_Normals_Buffer": {
			"buffer": "test",
			"byteLength": 8208,
			"byteOffset": 8208,
			"name": "Mesh_39_Normals_Buffer",
			"target": 34962
		},
		"Mesh_39_Polygons_Buffer": {
			"buffer": "test",
			"byteLength": 6144,
			"byteOffset": 21888,
			"name": "Mesh_39_Polygons_Buffer",
			"target": 34963
		},
		"Mesh_39_Positions_Buffer": {
			"buffer": "test",
			"byteLength": 8208,
			"byteOffset": 0,
			"name": "Mesh_39_Positions_Buffer",
			"target": 34962
		},
		"Mesh_39_TEXCOORD_0_Buffer": {
			"buffer": "test",
			"byteLength": 5472,
			"byteOffset": 16416,
			"name": "Mesh_39_TEXCOORD_0_Buffer",
			"target": 34962
		}
	},
	"buffers": {
		"test": {
			"byteLength": 28032,
			"name": "test",
			"type": "arraybuffer",
			"uri": "test.bin"
		}
	},
	"cameras": {
		
	},
	"images": {
		
	},
	"lights": {
		
	},
	"materials": {
		"defaultMaterial": {
			"name": "defaultMaterial",
			"technique": "defaultMaterial_technique_0",
			"values": {
				"diffuse": [0.59999999999999998,
				0.89411764705882402,
				0.72156862745098005,
				1]
			}
		}
	},
	"meshes": {
		"Mesh_39": {
			"name": "Mesh_39",
			"primitives": [{
				"attributes": {
					"NORMAL": "Mesh_39_Normals",
					"POSITION": "Mesh_39_Positions",
					"TEXCOORD_0": "Mesh_39_TEXCOORD_0"
				},
				"indices": "Mesh_39_Polygons",
				"material": "defaultMaterial",
				"mode": 4
			}]
		}
	},
	"nodes": {
		"Mesh_39": {
			"children": [],
			"matrix": [0.025399999999999999,
			0,
			0,
			0,
			0,
			0.025399999999999999,
			0,
			0,
			0,
			0,
			0.025399999999999999,
			0,
			-0.097620010375976632,
			0,
			0.2164778717041016,
			1],
			"meshes": ["Mesh_39"],
			"name": "Mesh_39"
		},
		"RootNode": {
			"children": ["Mesh_39"],
			"matrix": [1,
			0,
			0,
			0,
			0,
			1,
			0,
			0,
			0,
			0,
			1,
			0,
			0,
			0,
			0,
			1],
			"name": "RootNode"
		}
	},
	"programs": {
		"program_0": {
			"attributes": ["a_normal",
			"a_position"],
			"fragmentShader": "test0FS",
			"name": "program_0",
			"vertexShader": "test0VS"
		}
	},
	"samplers": {
		
	},
	"scene": "test",
	"scenes": {
		"test": {
			"nodes": ["RootNode"]
		}
	},
	"shaders": {
		"test0FS": {
			"type": 35632,
			"uri": "test0FS.glsl"
		},
		"test0VS": {
			"type": 35633,
			"uri": "test0VS.glsl"
		}
	},
	"skins": {
		
	},
	"techniques": {
		"defaultMaterial_technique_0": {
			"attributes": {
				"a_normal": "normal",
				"a_position": "position"
			},
			"extras": {
				"doubleSided": false,
				"lightingModel": "Unknown",
				"texcoordBindings": {
					"diffuse": "TEXCOORD_0"
				}
			},
			"parameters": {
				"diffuse": {
					"type": 35666
				},
				"modelViewMatrix": {
					"semantic": "MODELVIEW",
					"type": 35676
				},
				"normal": {
					"semantic": "NORMAL",
					"type": 35665
				},
				"normalMatrix": {
					"semantic": "MODELVIEWINVERSETRANSPOSE",
					"type": 35675
				},
				"position": {
					"semantic": "POSITION",
					"type": 35665
				},
				"projectionMatrix": {
					"semantic": "PROJECTION",
					"type": 35676
				}
			},
			"program": "program_0",
			"states": {
				"enable": [2884,
				2929]
			},
			"uniforms": {
				"u_diffuse": "diffuse",
				"u_modelViewMatrix": "modelViewMatrix",
				"u_normalMatrix": "normalMatrix",
				"u_projectionMatrix": "projectionMatrix"
			}
		}
	},
	"textures": {
		
	}
}