{"accessors":{"Mesh_45_Normals":{"bufferView":"Mesh_45_Normals_Buffer","byteOffset":0,"byteStride":12,"componentType":5126,"count":2399,"max":[0.99959897994995117,0.999580979347229,0.99843597412109375],"min":[-0.9990839958190918,-1,-0.99983197450637817],"name":"Mesh_45_Normals","type":"VEC3"},"Mesh_45_Polygons":{"bufferView":"Mesh_45_Polygons_Buffer","byteOffset":0,"byteStride":2,"componentType":5123,"count":12636,"name":"Mesh_45_Polygons","type":"SCALAR"},"Mesh_45_Positions":{"bufferView":"Mesh_45_Positions_Buffer","byteOffset":0,"byteStride":12,"componentType":5126,"count":2399,"max":[96.179901123046875,163.97000122070312,53.925201416015625],"min":[-69.298500061035156,9.9293699264526367,-61.328201293945313],"name":"Mesh_45_Positions","type":"VEC3"},"Mesh_45_TEXCOORD_0":{"bufferView":"Mesh_45_TEXCOORD_0_Buffer","byteOffset":0,"byteStride":8,"componentType":5126,"count":2399,"max":[0.98334598541259766,0.98003697395324707],"min":[0.026409000158309937,0.01996299996972084],"name":"Mesh_45_TEXCOORD_0","type":"VEC2"}},"animations":{},"asset":{"copyright":"gcorson","generator":"FBX GLTF Exporter v1.0","premultipliedAlpha":false,"profile":{"api":"WebGL","version":"1.0.3"},"version":"1.0"},"bufferViews":{"Mesh_45_Normals_Buffer":{"buffer":"duck","byteLength":28788,"byteOffset":28788,"name":"Mesh_45_Normals_Buffer","target":34962},"Mesh_45_Polygons_Buffer":{"buffer":"duck","byteLength":25272,"byteOffset":76768,"name":"Mesh_45_Polygons_Buffer","target":34963},"Mesh_45_Positions_Buffer":{"buffer":"duck","byteLength":28788,"byteOffset":0,"name":"Mesh_45_Positions_Buffer","target":34962},"Mesh_45_TEXCOORD_0_Buffer":{"buffer":"duck","byteLength":19192,"byteOffset":57576,"name":"Mesh_45_TEXCOORD_0_Buffer","target":34962}},"buffers":{"duck":{"byteLength":102040,"name":"duck","type":"arraybuffer","uri":"duck.bin"}},"cameras":{"Camera_46":{"name":"Camera_46","perspective":{"aspectRatio":1.5,"yfov":37.849200000000003,"zfar":10000,"znear":1},"type":"perspective"}},"images":{"file2":{"name":"file2","uri":"duckCM.png"}},"lights":{"Light_47":{"directional":{"color":[1,1,1]},"name":"Light_47","type":"directional"}},"materials":{"blinn3":{"name":"blinn3","technique":"blinn3_technique_0","values":{"ambient":[0,0,0,1],"diffuse":"texture_file2","emission":[0,0,0,1],"reflective":[0,0,0,1],"reflectivity":0.5,"shininess":0.29999999999999999,"specular":[0,0,0,1],"transparency":1,"transparent":[0,0,0,1]}}},"meshes":{"Mesh_45":{"name":"Mesh_45","primitives":[{"attributes":{"NORMAL":"Mesh_45_Normals","POSITION":"Mesh_45_Positions","TEXCOORD_0":"Mesh_45_TEXCOORD_0"},"indices":"Mesh_45_Polygons","material":"blinn3","mode":4}]}},"nodes":{"LOD3sp":{"children":[],"matrix":[0.01,0,0,0,0,0.01,0,0,0,0,0.01,0,0,0,0,1],"meshes":["Mesh_45"],"name":"LOD3sp"},"camera1":{"camera":"Camera_46","children":[],"matrix":[-0.0072896862742141194,-7.7984354396551399e-019,-0.0068454710592868841,0,-0.0042520491534354605,0.0078369345732583976,0.0045279724481533659,0,0.0053647508814765174,0.006211477802783103,-0.0057128794390595827,0,4.0011299999999999,4.6326400000000003,-4.3107800000000003,1],"name":"camera1"},"directionalLight1":{"children":[],"light":"Light_47","matrix":[-0.0095469169781043639,0.0021814333356197169,-0.0020242837783842694,0,0.00014672150811696955,0.0071388524201416326,0.0070010898381961811,0,0.0029723473909081585,0.0066541817472687793,-0.0068474094562890331,0,1.48654,1.8367199999999999,-2.9217899999999997,1],"name":"directionalLight1"}},"programs":{"program_0":{"attributes":["a_normal","a_position","a_texcoord0"],"fragmentShader":"duck0FS","name":"program_0","vertexShader":"duck0VS"}},"samplers":{"sampler_file2":{"magFilter":9729,"minFilter":9987,"name":"sampler_file2","wrapS":10497,"wrapT":10497}},"scene":"duck","scenes":{"duck":{"nodes":["LOD3sp","camera1","directionalLight1"]}},"shaders":{"duck0FS":{"type":35632,"uri":"duck0FS.glsl"},"duck0VS":{"type":35633,"uri":"duck0VS.glsl"}},"skins":{},"techniques":{"blinn3_technique_0":{"attributes":{"a_normal":"normal","a_position":"position","a_texcoord0":"texcoord0"},"parameters":{"ambient":{"type":35666},"diffuse":{"type":35678},"emission":{"type":35666},"light0Color":{"type":35665,"value":[1,1,1]},"light0Transform":{"node":"directionalLight1","semantic":"MODELVIEW","type":35676},"modelViewMatrix":{"semantic":"MODELVIEW","type":35676},"normal":{"semantic":"NORMAL","type":35665},"normalMatrix":{"semantic":"MODELVIEWINVERSETRANSPOSE","type":35675},"position":{"semantic":"POSITION","type":35665},"projectionMatrix":{"semantic":"PROJECTION","type":35676},"reflective":{"type":35666},"reflectivity":{"type":5126},"shininess":{"type":5126},"specular":{"type":35666},"texcoord0":{"semantic":"TEXCOORD_0","type":35664},"transparency":{"type":5126},"transparent":{"type":35666}},"program":"program_0","states":{"enable":[2929]},"uniforms":{"u_ambient":"ambient","u_diffuse":"diffuse","u_emission":"emission","u_light0Color":"light0Color","u_light0Transform":"light0Transform","u_modelViewMatrix":"modelViewMatrix","u_normalMatrix":"normalMatrix","u_projectionMatrix":"projectionMatrix","u_reflective":"reflective","u_reflectivity":"reflectivity","u_shininess":"shininess","u_specular":"specular","u_transparency":"transparency","u_transparent":"transparent"}}},"textures":{"texture_file2":{"format":6408,"internalFormat":6408,"name":"texture_file2","sampler":"sampler_file2","source":"file2","target":3553,"type":5121}}}